<svg width="963" height="154" viewBox="0 0 963 154" fill="none" xmlns="http://www.w3.org/2000/svg">
<path d="M66.688 106C63.9573 111.291 60.1173 115.643 55.168 119.056C50.304 122.384 44.2027 124.048 36.864 124.048C32 124.048 27.52 123.237 23.424 121.616C19.4133 119.909 15.9147 117.563 12.928 114.576C10.0267 111.589 7.72267 108.091 6.016 104.08C4.39467 99.984 3.584 95.504 3.584 90.64C3.584 85.776 4.39467 81.296 6.016 77.2C7.72267 73.104 10.0267 69.6053 12.928 66.704C15.9147 63.7173 19.4133 61.4133 23.424 59.792C27.52 58.0853 32 57.232 36.864 57.232C44.1173 57.232 50.2187 58.896 55.168 62.224C60.1173 65.552 63.744 69.8613 66.048 75.152L50.688 81.552C49.2373 78.6507 47.36 76.4747 45.056 75.024C42.8373 73.488 40.0213 72.72 36.608 72.72C34.3893 72.72 32.2987 73.1467 30.336 74C28.3733 74.8533 26.624 76.048 25.088 77.584C23.6373 79.12 22.4853 80.9973 21.632 83.216C20.7787 85.4347 20.352 87.9093 20.352 90.64C20.352 93.3707 20.7787 95.8453 21.632 98.064C22.4853 100.283 23.6373 102.16 25.088 103.696C26.624 105.232 28.3733 106.427 30.336 107.28C32.2987 108.133 34.3893 108.56 36.608 108.56C40.1067 108.56 43.0507 107.792 45.44 106.256C47.9147 104.635 49.8773 102.331 51.328 99.344L66.688 106ZM80.758 30.352H97.526V56.08L96.502 67.472H97.526C99.318 64.4853 101.878 62.0533 105.206 60.176C108.619 58.2133 112.417 57.232 116.598 57.232C124.705 57.232 130.678 59.6213 134.518 64.4C138.443 69.1787 140.406 75.7067 140.406 83.984V122H123.638V86.032C123.638 81.68 122.614 78.3947 120.566 76.176C118.518 73.872 115.659 72.72 111.99 72.72C109.686 72.72 107.638 73.232 105.846 74.256C104.054 75.1947 102.518 76.5173 101.238 78.224C100.043 79.9307 99.1047 81.936 98.422 84.24C97.8247 86.4587 97.526 88.848 97.526 91.408V122H80.758V30.352ZM217.49 106.896C214.589 112.016 210.663 116.155 205.714 119.312C200.85 122.469 194.877 124.048 187.794 124.048C183.015 124.048 178.578 123.237 174.482 121.616C170.471 119.909 166.973 117.563 163.986 114.576C160.999 111.589 158.653 108.091 156.946 104.08C155.325 99.984 154.514 95.504 154.514 90.64C154.514 86.1173 155.325 81.8507 156.946 77.84C158.567 73.744 160.829 70.2027 163.73 67.216C166.631 64.144 170.045 61.712 173.97 59.92C177.981 58.128 182.375 57.232 187.154 57.232C192.189 57.232 196.669 58.0853 200.594 59.792C204.519 61.4133 207.805 63.7173 210.45 66.704C213.095 69.6053 215.101 73.0613 216.466 77.072C217.831 81.0827 218.514 85.4347 218.514 90.128C218.514 90.7253 218.514 91.2373 218.514 91.664C218.429 92.176 218.386 92.6453 218.386 93.072C218.301 93.4987 218.258 93.968 218.258 94.48H171.026C171.367 97.04 172.05 99.2587 173.074 101.136C174.183 102.928 175.506 104.464 177.042 105.744C178.663 106.939 180.413 107.835 182.29 108.432C184.167 108.944 186.087 109.2 188.05 109.2C191.89 109.2 195.047 108.347 197.522 106.64C200.082 104.848 202.087 102.629 203.538 99.984L217.49 106.896ZM202.258 82.576C202.173 81.4667 201.789 80.2293 201.106 78.864C200.509 77.4987 199.57 76.2187 198.29 75.024C197.095 73.8293 195.559 72.848 193.682 72.08C191.89 71.312 189.714 70.928 187.154 70.928C183.57 70.928 180.413 71.952 177.682 74C174.951 76.048 173.031 78.9067 171.922 82.576H202.258ZM272.344 115.344H271.32C269.357 117.733 266.968 119.781 264.152 121.488C261.421 123.195 257.88 124.048 253.528 124.048C250.285 124.048 247.213 123.493 244.312 122.384C241.496 121.36 239.021 119.909 236.888 118.032C234.755 116.155 233.091 113.893 231.896 111.248C230.701 108.603 230.104 105.701 230.104 102.544C230.104 99.3013 230.744 96.4 232.024 93.84C233.304 91.1947 235.096 88.9333 237.4 87.056C239.704 85.1787 242.392 83.7707 245.464 82.832C248.621 81.808 252.035 81.296 255.704 81.296C259.8 81.296 263.171 81.6373 265.816 82.32C268.461 82.9173 270.637 83.5573 272.344 84.24V82.32C272.344 78.992 271.021 76.2613 268.376 74.128C265.731 71.9093 262.445 70.8 258.52 70.8C252.717 70.8 247.811 73.232 243.8 78.096L231.64 69.776C238.296 61.4133 247.384 57.232 258.904 57.232C268.632 57.232 276.056 59.536 281.176 64.144C286.296 68.6667 288.856 75.408 288.856 84.368V122H272.344V115.344ZM272.344 96.528C270.381 95.5893 268.333 94.864 266.2 94.352C264.152 93.7547 261.891 93.456 259.416 93.456C255.405 93.456 252.291 94.352 250.072 96.144C247.939 97.8507 246.872 99.984 246.872 102.544C246.872 105.104 247.896 107.152 249.944 108.688C252.077 110.224 254.509 110.992 257.24 110.992C259.459 110.992 261.507 110.608 263.384 109.84C265.261 108.987 266.84 107.92 268.12 106.64C269.485 105.275 270.509 103.739 271.192 102.032C271.96 100.24 272.344 98.4053 272.344 96.528ZM305.516 59.28H321.26V66.832H322.284C323.82 64.1867 326.209 61.9253 329.452 60.048C332.695 58.1707 336.705 57.232 341.484 57.232C345.495 57.232 349.292 58.0853 352.876 59.792C356.545 61.4133 359.745 63.7173 362.476 66.704C365.292 69.6053 367.511 73.104 369.132 77.2C370.753 81.296 371.564 85.776 371.564 90.64C371.564 95.504 370.753 99.984 369.132 104.08C367.511 108.176 365.292 111.717 362.476 114.704C359.745 117.605 356.545 119.909 352.876 121.616C349.292 123.237 345.495 124.048 341.484 124.048C336.705 124.048 332.695 123.109 329.452 121.232C326.209 119.355 323.82 117.093 322.284 114.448H321.26L322.284 123.408V149.648H305.516V59.28ZM338.028 108.56C340.247 108.56 342.337 108.133 344.3 107.28C346.348 106.427 348.14 105.232 349.676 103.696C351.212 102.16 352.449 100.283 353.388 98.064C354.327 95.8453 354.796 93.3707 354.796 90.64C354.796 87.9093 354.327 85.4347 353.388 83.216C352.449 80.9973 351.212 79.12 349.676 77.584C348.14 76.048 346.348 74.8533 344.3 74C342.337 73.1467 340.247 72.72 338.028 72.72C335.809 72.72 333.676 73.1467 331.628 74C329.665 74.768 327.916 75.92 326.38 77.456C324.844 78.992 323.607 80.8693 322.668 83.088C321.729 85.3067 321.26 87.824 321.26 90.64C321.26 93.456 321.729 95.9733 322.668 98.192C323.607 100.411 324.844 102.288 326.38 103.824C327.916 105.36 329.665 106.555 331.628 107.408C333.676 108.176 335.809 108.56 338.028 108.56Z" fill="#040F45"/>
<path d="M415.046 151.696C410.609 151.696 406.641 151.099 403.142 149.904C399.729 148.795 396.742 147.301 394.182 145.424C391.622 143.632 389.489 141.627 387.782 139.408C386.075 137.189 384.838 134.971 384.07 132.752L400.07 126.352C401.265 129.68 403.227 132.24 405.958 134.032C408.689 135.909 411.718 136.848 415.046 136.848C420.337 136.848 424.518 135.184 427.59 131.856C430.662 128.613 432.198 124.048 432.198 118.16V113.808H431.174C429.211 116.539 426.609 118.715 423.366 120.336C420.209 121.872 416.454 122.64 412.102 122.64C408.347 122.64 404.678 121.872 401.094 120.336C397.595 118.8 394.481 116.624 391.75 113.808C389.019 110.907 386.801 107.451 385.094 103.44C383.387 99.4293 382.534 94.9493 382.534 90C382.534 85.0507 383.387 80.5707 385.094 76.56C386.801 72.464 389.019 69.008 391.75 66.192C394.481 63.2907 397.595 61.072 401.094 59.536C404.678 58 408.347 57.232 412.102 57.232C416.454 57.232 420.209 58.0427 423.366 59.664C426.609 61.2 429.211 63.3333 431.174 66.064H432.198V59.28H448.198V117.52C448.198 122.811 447.387 127.547 445.766 131.728C444.145 135.995 441.883 139.579 438.982 142.48C436.081 145.467 432.582 147.728 428.486 149.264C424.475 150.885 419.995 151.696 415.046 151.696ZM415.686 107.536C417.734 107.536 419.739 107.152 421.702 106.384C423.75 105.616 425.542 104.507 427.078 103.056C428.614 101.52 429.851 99.6853 430.79 97.552C431.729 95.3333 432.198 92.816 432.198 90C432.198 87.184 431.729 84.6667 430.79 82.448C429.851 80.2293 428.614 78.3947 427.078 76.944C425.542 75.408 423.75 74.256 421.702 73.488C419.739 72.72 417.734 72.336 415.686 72.336C413.638 72.336 411.633 72.72 409.67 73.488C407.707 74.256 405.958 75.408 404.422 76.944C402.886 78.48 401.649 80.3573 400.71 82.576C399.771 84.7093 399.302 87.184 399.302 90C399.302 92.816 399.771 95.3333 400.71 97.552C401.649 99.6853 402.886 101.52 404.422 103.056C405.958 104.507 407.707 105.616 409.67 106.384C411.633 107.152 413.638 107.536 415.686 107.536ZM495.404 57.232C500.268 57.232 504.705 58.0853 508.716 59.792C512.812 61.4133 516.311 63.7173 519.212 66.704C522.199 69.6053 524.503 73.104 526.124 77.2C527.831 81.296 528.684 85.776 528.684 90.64C528.684 95.504 527.831 99.984 526.124 104.08C524.503 108.176 522.199 111.717 519.212 114.704C516.311 117.605 512.812 119.909 508.716 121.616C504.705 123.237 500.268 124.048 495.404 124.048C490.54 124.048 486.06 123.237 481.964 121.616C477.953 119.909 474.455 117.605 471.468 114.704C468.567 111.717 466.263 108.176 464.556 104.08C462.935 99.984 462.124 95.504 462.124 90.64C462.124 85.776 462.935 81.296 464.556 77.2C466.263 73.104 468.567 69.6053 471.468 66.704C474.455 63.7173 477.953 61.4133 481.964 59.792C486.06 58.0853 490.54 57.232 495.404 57.232ZM495.404 108.56C497.537 108.56 499.585 108.176 501.548 107.408C503.596 106.555 505.388 105.36 506.924 103.824C508.46 102.288 509.655 100.411 510.508 98.192C511.447 95.9733 511.916 93.456 511.916 90.64C511.916 87.824 511.447 85.3067 510.508 83.088C509.655 80.8693 508.46 78.992 506.924 77.456C505.388 75.92 503.596 74.768 501.548 74C499.585 73.1467 497.537 72.72 495.404 72.72C493.185 72.72 491.095 73.1467 489.132 74C487.169 74.768 485.42 75.92 483.884 77.456C482.348 78.992 481.111 80.8693 480.172 83.088C479.319 85.3067 478.892 87.824 478.892 90.64C478.892 93.456 479.319 95.9733 480.172 98.192C481.111 100.411 482.348 102.288 483.884 103.824C485.42 105.36 487.169 106.555 489.132 107.408C491.095 108.176 493.185 108.56 495.404 108.56ZM572.994 57.232C577.858 57.232 582.295 58.0853 586.306 59.792C590.402 61.4133 593.901 63.7173 596.802 66.704C599.789 69.6053 602.093 73.104 603.714 77.2C605.421 81.296 606.274 85.776 606.274 90.64C606.274 95.504 605.421 99.984 603.714 104.08C602.093 108.176 599.789 111.717 596.802 114.704C593.901 117.605 590.402 119.909 586.306 121.616C582.295 123.237 577.858 124.048 572.994 124.048C568.13 124.048 563.65 123.237 559.554 121.616C555.543 119.909 552.045 117.605 549.058 114.704C546.157 111.717 543.853 108.176 542.146 104.08C540.525 99.984 539.714 95.504 539.714 90.64C539.714 85.776 540.525 81.296 542.146 77.2C543.853 73.104 546.157 69.6053 549.058 66.704C552.045 63.7173 555.543 61.4133 559.554 59.792C563.65 58.0853 568.13 57.232 572.994 57.232ZM572.994 108.56C575.127 108.56 577.175 108.176 579.138 107.408C581.186 106.555 582.978 105.36 584.514 103.824C586.05 102.288 587.245 100.411 588.098 98.192C589.037 95.9733 589.506 93.456 589.506 90.64C589.506 87.824 589.037 85.3067 588.098 83.088C587.245 80.8693 586.05 78.992 584.514 77.456C582.978 75.92 581.186 74.768 579.138 74C577.175 73.1467 575.127 72.72 572.994 72.72C570.775 72.72 568.685 73.1467 566.722 74C564.759 74.768 563.01 75.92 561.474 77.456C559.938 78.992 558.701 80.8693 557.762 83.088C556.909 85.3067 556.482 87.824 556.482 90.64C556.482 93.456 556.909 95.9733 557.762 98.192C558.701 100.411 559.938 102.288 561.474 103.824C563.01 105.36 564.759 106.555 566.722 107.408C568.685 108.176 570.775 108.56 572.994 108.56ZM649.816 151.696C645.379 151.696 641.411 151.099 637.912 149.904C634.499 148.795 631.512 147.301 628.952 145.424C626.392 143.632 624.259 141.627 622.552 139.408C620.845 137.189 619.608 134.971 618.84 132.752L634.84 126.352C636.035 129.68 637.997 132.24 640.728 134.032C643.459 135.909 646.488 136.848 649.816 136.848C655.107 136.848 659.288 135.184 662.36 131.856C665.432 128.613 666.968 124.048 666.968 118.16V113.808H665.944C663.981 116.539 661.379 118.715 658.136 120.336C654.979 121.872 651.224 122.64 646.872 122.64C643.117 122.64 639.448 121.872 635.864 120.336C632.365 118.8 629.251 116.624 626.52 113.808C623.789 110.907 621.571 107.451 619.864 103.44C618.157 99.4293 617.304 94.9493 617.304 90C617.304 85.0507 618.157 80.5707 619.864 76.56C621.571 72.464 623.789 69.008 626.52 66.192C629.251 63.2907 632.365 61.072 635.864 59.536C639.448 58 643.117 57.232 646.872 57.232C651.224 57.232 654.979 58.0427 658.136 59.664C661.379 61.2 663.981 63.3333 665.944 66.064H666.968V59.28H682.968V117.52C682.968 122.811 682.157 127.547 680.536 131.728C678.915 135.995 676.653 139.579 673.752 142.48C670.851 145.467 667.352 147.728 663.256 149.264C659.245 150.885 654.765 151.696 649.816 151.696ZM650.456 107.536C652.504 107.536 654.509 107.152 656.472 106.384C658.52 105.616 660.312 104.507 661.848 103.056C663.384 101.52 664.621 99.6853 665.56 97.552C666.499 95.3333 666.968 92.816 666.968 90C666.968 87.184 666.499 84.6667 665.56 82.448C664.621 80.2293 663.384 78.3947 661.848 76.944C660.312 75.408 658.52 74.256 656.472 73.488C654.509 72.72 652.504 72.336 650.456 72.336C648.408 72.336 646.403 72.72 644.44 73.488C642.477 74.256 640.728 75.408 639.192 76.944C637.656 78.48 636.419 80.3573 635.48 82.576C634.541 84.7093 634.072 87.184 634.072 90C634.072 92.816 634.541 95.3333 635.48 97.552C636.419 99.6853 637.656 101.52 639.192 103.056C640.728 104.507 642.477 105.616 644.44 106.384C646.403 107.152 648.408 107.536 650.456 107.536ZM701.103 122V30.352H717.871V122H701.103ZM794.835 106.896C791.934 112.016 788.008 116.155 783.059 119.312C778.195 122.469 772.222 124.048 765.139 124.048C760.36 124.048 755.923 123.237 751.827 121.616C747.816 119.909 744.318 117.563 741.331 114.576C738.344 111.589 735.998 108.091 734.291 104.08C732.67 99.984 731.859 95.504 731.859 90.64C731.859 86.1173 732.67 81.8507 734.291 77.84C735.912 73.744 738.174 70.2027 741.075 67.216C743.976 64.144 747.39 61.712 751.315 59.92C755.326 58.128 759.72 57.232 764.499 57.232C769.534 57.232 774.014 58.0853 777.939 59.792C781.864 61.4133 785.15 63.7173 787.795 66.704C790.44 69.6053 792.446 73.0613 793.811 77.072C795.176 81.0827 795.859 85.4347 795.859 90.128C795.859 90.7253 795.859 91.2373 795.859 91.664C795.774 92.176 795.731 92.6453 795.731 93.072C795.646 93.4987 795.603 93.968 795.603 94.48H748.371C748.712 97.04 749.395 99.2587 750.419 101.136C751.528 102.928 752.851 104.464 754.387 105.744C756.008 106.939 757.758 107.835 759.635 108.432C761.512 108.944 763.432 109.2 765.395 109.2C769.235 109.2 772.392 108.347 774.867 106.64C777.427 104.848 779.432 102.629 780.883 99.984L794.835 106.896ZM779.603 82.576C779.518 81.4667 779.134 80.2293 778.451 78.864C777.854 77.4987 776.915 76.2187 775.635 75.024C774.44 73.8293 772.904 72.848 771.027 72.08C769.235 71.312 767.059 70.928 764.499 70.928C760.915 70.928 757.758 71.952 755.027 74C752.296 76.048 750.376 78.9067 749.267 82.576H779.603Z" fill="#76706A"/>
<circle cx="885.709" cy="76.7086" r="76.7086" fill="#061147"/>
<path d="M856.541 107.261L864.51 124.196L869.69 119.016V101.484L891.008 83.3541L914.716 127.184L919.696 124.196L909.735 66.4199C909.735 66.4199 930.454 45.8995 933.443 40.9188C936.431 35.9382 938.004 29.0827 934.24 27.1722C929.754 25.7491 925.879 27.2541 919.497 31.5552L896.187 53.4701L839.009 43.3096L834.626 48.091L878.855 71.799L860.924 93.3155H843.99L839.009 98.0969L856.541 107.261Z" fill="white"/>
</svg>
